# xmcd
#
# Track frame offsets:
#	150
#	14570
#	23585
#	41372
#	56540
#	79477
#	93085
#	111802
#	121152
#	137967
#
# Disc length: 2083 seconds
#
# Revision: 0
# Processed by: cddbd v1.5.2PL0 Copyright (c) Steve Scherf et al.
# Submitted via: EasyCDDAExtractor 10.0.6.1
#
DISCID=7908210a
DTITLE=The Singing Cookes - Just On Time
DYEAR=1992
DGENRE=Gospel
TTITLE0=My God Comes Just On Time
TTITLE1=I Didn't Leave Like I Came
TTITLE2=Nearing That City
TTITLE3=The Greatest Gift Of All
TTITLE4=My Momma's Roses
TTITLE5=Walking With Faith
TTITLE6=Lord It's Just Another Hill
TTITLE7=Heading For The Promise Land
TTITLE8=Land Of The Living
TTITLE9=Won't Somebody Call My Name Tonight
EXTD=
EXTT0=
EXTT1=
EXTT2=
EXTT3=
EXTT4=
EXTT5=
EXTT6=
EXTT7=
EXTT8=
EXTT9=
PLAYORDER=
